<svg xmlns="http://www.w3.org/2000/svg" xmlns:xlink="http://www.w3.org/1999/xlink" width="500" height="117" viewBox="0 0 500 117">
  <defs>
    <radialGradient id="radial-gradient" cx="0.254" cy="1.473" r="2.356" gradientTransform="matrix(0.232, -0.973, 0.171, 0.041, 0.115, 1.446)" gradientUnits="objectBoundingBox">
      <stop offset="0" stop-color="#f2709c"/>
      <stop offset="1" stop-color="#ff9472"/>
    </radialGradient>
    <clipPath id="clip-logo">
      <rect width="500" height="117"/>
    </clipPath>
  </defs>
  <g id="logo" clip-path="url(#clip-logo)">
    <path id="Path_7" data-name="Path 7" d="M7.84.037h56.5c12,0,21.447-2.881,28.169-8.163,7.522-5.762,11.684-14.085,11.684-25.608,0-13.6-8-24.168-20.487-28.009v-.48C93.788-66.065,99.709-73.267,99.709-84.63c0-9.123-3.361-16.485-9.923-21.927C83.7-111.519,74.9-114.4,63.058-114.4H7.84ZM35.849-22.691V-49.9H60.817c8.643,0,15.365,4.641,15.365,13.764,0,8.163-5.762,13.444-15.045,13.444Zm0-46.415V-91.993H59.056c8.323,0,13.6,4.161,13.6,11.364,0,7.522-5.6,11.524-13.764,11.524Zm119.4,71.543c10.4,0,18.726-2.721,25.608-7.522A33.346,33.346,0,0,0,194.62-24.451H169.172c-2.241,5.122-6.722,8.163-13.6,8.163-10.723,0-16.805-6.882-18.406-17.926h58.9c.16-16.645-4.641-30.89-14.4-39.853-7.042-6.4-16.325-10.243-28.009-10.243-24.968,0-42.093,18.726-42.093,43.214C111.553-16.289,128.2,2.437,155.247,2.437ZM137.321-49.739c1.761-9.763,6.882-16.005,16.805-16.005,8.483,0,14.565,6.242,15.525,16.005ZM244.876,2.437c10.4,0,18.726-2.721,25.608-7.522a33.345,33.345,0,0,0,13.764-19.366H258.8c-2.241,5.122-6.722,8.163-13.6,8.163-10.723,0-16.805-6.882-18.406-17.926h58.9c.16-16.645-4.641-30.89-14.4-39.853-7.042-6.4-16.325-10.243-28.009-10.243-24.968,0-42.093,18.726-42.093,43.214C201.182-16.289,217.827,2.437,244.876,2.437ZM226.95-49.739c1.761-9.763,6.882-16.005,16.805-16.005,8.483,0,14.565,6.242,15.525,16.005ZM326.662,2.6c10.723,0,19.206-5.122,24.168-13.6h.32V.037h24.968V-114.4H350.03v41.773h-.48c-4.8-6.882-11.364-11.684-22.887-11.684-21.127,0-35.851,17.766-35.851,43.374C290.811-13.568,305.7,2.6,326.662,2.6Zm6.722-20.647c-10.083,0-16.165-8.963-16.165-23.207,0-13.764,6.082-23.367,16.485-23.367,11.364,0,16.965,9.923,16.965,23.688C350.67-27.492,344.268-18.049,333.384-18.049Zm95.23,2.081c-11.364,0-17.286-9.923-17.286-24.808s5.922-24.968,17.286-24.968S446.06-55.661,446.06-40.776,439.978-15.969,428.615-15.969Zm.16,18.566c26.408,0,43.694-18.726,43.694-43.374S455.183-84.15,428.775-84.15c-26.248,0-43.854,18.726-43.854,43.374S402.526,2.6,428.775,2.6ZM481.432.037H507.84V-114.4H481.432Z" transform="translate(-7.84 114.4)" fill="url(#radial-gradient)"/>
  </g>
</svg>
