<svg xmlns="http://www.w3.org/2000/svg" xmlns:xlink="http://www.w3.org/1999/xlink" width="400" height="100" viewBox="0 0 400 100">
  <defs>
    <filter id="Path_1" x="93.646" y="-5.206" width="319.854" height="116.412" filterUnits="userSpaceOnUse">
      <feOffset dy="3" input="SourceAlpha"/>
      <feGaussianBlur stdDeviation="4.5" result="blur"/>
      <feFlood flood-opacity="0.059"/>
      <feComposite operator="in" in2="blur"/>
      <feComposite in="SourceGraphic"/>
    </filter>
    <filter id="Path_2" x="-13.5" y="-3.369" width="85.097" height="114.574" filterUnits="userSpaceOnUse">
      <feOffset dy="3" input="SourceAlpha"/>
      <feGaussianBlur stdDeviation="4.5" result="blur-2"/>
      <feFlood flood-opacity="0.059"/>
      <feComposite operator="in" in2="blur-2"/>
      <feComposite in="SourceGraphic"/>
    </filter>
    <filter id="Path_4" x="29.817" y="-3.369" width="85.097" height="114.574" filterUnits="userSpaceOnUse">
      <feOffset dy="3" input="SourceAlpha"/>
      <feGaussianBlur stdDeviation="4.5" result="blur-3"/>
      <feFlood flood-opacity="0.059"/>
      <feComposite operator="in" in2="blur-3"/>
      <feComposite in="SourceGraphic"/>
    </filter>
    <clipPath id="clip-beedolLogo">
      <rect width="400" height="100"/>
    </clipPath>
  </defs>
  <g id="beedolLogo" clip-path="url(#clip-beedolLogo)">
    <g transform="matrix(1, 0, 0, 1, 0, 0)" filter="url(#Path_1)">
      <path id="Path_1-2" data-name="Path 1" d="M88.75,30.782c16.168,0,26.089-9.431,28.416-20.577H100.753c-1.837,4.777-5.634,7.716-12.126,7.716-9.431,0-14.82-6-16.045-15.678h45.563c0-22.414-10.778-37.847-30.988-37.847C68.786-35.6,56.17-21.151,56.17-2.533,56.17,16.206,67.928,30.782,88.75,30.782ZM87.4-22.743c7.594,0,12.861,5.512,13.351,13.473H72.828C74.3-17.476,78.584-22.743,87.4-22.743ZM155.38,30.782c16.168,0,26.089-9.431,28.416-20.577H167.383c-1.837,4.777-5.634,7.716-12.126,7.716-9.431,0-14.82-6-16.045-15.678h45.563C184.776-20.171,174-35.6,153.788-35.6c-18.372,0-30.988,14.453-30.988,33.07C122.8,16.206,134.558,30.782,155.38,30.782Zm-1.347-53.525c7.594,0,12.861,5.512,13.351,13.473H139.458C140.927-17.476,145.214-22.743,154.033-22.743Zm61.976,53.525c8.819,0,15.065-4.042,18.74-10.043h.245v8.206h16.045V-58.63H234.381v32.335h-.367c-3.43-5.267-8.941-9.309-17.76-9.309-15.678,0-26.824,13.6-26.824,33.193C189.43,17.921,200.208,30.782,216.009,30.782Zm3.674-13.963c-8.574,0-13.351-7.1-13.351-19.23,0-11.636,4.654-19.72,13.84-19.72,10.656,0,14.575,8.084,14.575,20.087C234.748,9.47,229.6,16.819,219.683,16.819Zm71.9,13.963c19.475,0,32.825-14.453,32.825-33.193S311.054-35.6,291.58-35.6,258.755-21.151,258.755-2.411,272.105,30.782,291.58,30.782Zm0-12.738c-10.288,0-15.923-8.206-15.923-20.454s5.634-20.577,15.923-20.577c10.166,0,15.923,8.329,15.923,20.577S301.746,18.044,291.58,18.044Zm40.786,10.9h16.658V-58.63H332.366Z" transform="translate(50.98 63.92)" fill="#e36934"/>
    </g>
    <g transform="matrix(1, 0, 0, 1, 0, 0)" filter="url(#Path_2)">
      <path id="Path_2-2" data-name="Path 2" d="M62.607,28.944H29.234c-7.733,0-14.143-2.572-18.314-6.981C6.647,17.554,4.51,11.919,4.51,3.713,4.51-7.065,10-15.149,18.042-17.966v-.367c-6.817-2.817-11.4-8.574-11.4-17.515,0-6.859,1.831-12.126,5.8-16.413,3.765-4.042,9.768-6.369,17.6-6.369H62.607ZM47.854-10.25H31.269c-6.715,0-11.8,4.287-11.8,12.616,0,7.1,4.273,11.881,11.4,11.881H47.854Zm0-13.106V-44.177H31.574c-6.512,0-10.48,3.8-10.48,10.288,0,6.859,4.375,10.533,10.785,10.533Z" transform="translate(-4.51 65.76)" fill="#f6976d"/>
    </g>
    <g transform="matrix(1, 0, 0, 1, 0, 0)" filter="url(#Path_4)">
      <path id="Path_4-2" data-name="Path 4" d="M4.51,28.944H37.883c7.733,0,14.143-2.572,18.314-6.981,4.273-4.409,6.41-10.044,6.41-18.25,0-10.778-5.494-18.862-13.532-21.679v-.367c6.817-2.817,11.4-8.574,11.4-17.515,0-6.859-1.831-12.126-5.8-16.413C50.906-56.3,44.9-58.63,37.069-58.63H4.51ZM19.263-10.25H35.848c6.715,0,11.8,4.287,11.8,12.616,0,7.1-4.273,11.881-11.4,11.881H19.263Zm0-13.106V-44.177H35.542c6.512,0,10.48,3.8,10.48,10.288,0,6.859-4.375,10.533-10.785,10.533Z" transform="translate(38.81 65.76)" fill="#e36934"/>
    </g>
    <path id="Path_5" data-name="Path 5" d="M4.51,28.944H19.263V-58.63H4.51ZM19.263-10.25v0Zm0-13.106v0Z" transform="translate(38.807 65.761)" fill="#db3e17"/>
  </g>
</svg>
